HIERARCHY
ROOT hip
{
  OFFSET 0 0 0
  CHANNELS 6 Xposition Yposition Zposition Zrotation Yrotation Xrotation
  JOINT abdomen
  {
    OFFSET 0 20.6881 -0.73152
    CHANNELS 3 Zrotation Xrotation Yrotation
    JOINT chest
    {
      OFFSET 0 11.7043 -0.48768
      CHANNELS 3 Zrotation Xrotation Yrotation
      JOINT neck
      {
        OFFSET 0 22.1894 -2.19456
        CHANNELS 3 Zrotation Xrotation Yrotation
        JOINT head
        {
          OFFSET -0.24384 7.07133 1.2192
          CHANNELS 3 Zrotation Xrotation Yrotation
          JOINT leftEye
          {
            OFFSET 4.14528 8.04674 8.04672
            CHANNELS 3 Zrotation Xrotation Yrotation
            End Site
            {
              OFFSET 1 0 0
            }
          }
          JOINT rightEye
          {
            OFFSET -3.6576 8.04674 8.04672
            CHANNELS 3 Zrotation Xrotation Yrotation
            End Site
            {
              OFFSET 1 0 0
            }
          }
        }
      }
      JOINT rCollar
      {
        OFFSET -2.68224 19.2634 -4.8768
        CHANNELS 3 Zrotation Xrotation Yrotation
        JOINT rShldr
        {
          OFFSET -8.77824 -1.95073 1.46304
          CHANNELS 3 Zrotation Xrotation Yrotation
          JOINT rForeArm
          {
            OFFSET -28.1742 -1.7115 0.48768
            CHANNELS 3 Zrotation Xrotation Yrotation
            JOINT rHand
            {
              OFFSET -22.5879 0.773209 7.07136
              CHANNELS 3 Zrotation Xrotation Yrotation
              JOINT rThumb1
              {
                OFFSET -1.2192 -0.487915 3.41376
                CHANNELS 3 Zrotation Xrotation Yrotation
                JOINT rThumb2
                {
                  OFFSET -3.37035 -0.52449 3.41376
                  CHANNELS 3 Zrotation Xrotation Yrotation
                  End Site
                  {
                    OFFSET -1.78271 -1.18214 1.43049
                  }
                }
              }
              JOINT rIndex1
              {
                OFFSET -7.75947 0.938293 5.60832
                CHANNELS 3 Zrotation Xrotation Yrotation
                JOINT rIndex2
                {
                  OFFSET -2.54057 -0.884171 1.56538
                  CHANNELS 3 Zrotation Xrotation Yrotation
                  End Site
                  {
                    OFFSET -1.62519 -0.234802 1.16502
                  }
                }
              }
              JOINT rMid1
              {
                OFFSET -8.24714 1.18213 3.41376
                CHANNELS 3 Zrotation Xrotation Yrotation
                JOINT rMid2
                {
                  OFFSET -3.10165 -0.590103 1.0647
                  CHANNELS 3 Zrotation Xrotation Yrotation
                  End Site
                  {
                    OFFSET -2.48547 -0.328903 0.83742
                  }
                }
              }
              JOINT rRing1
              {
                OFFSET -8.82822 0.546677 1.51678
                CHANNELS 3 Zrotation Xrotation Yrotation
                JOINT rRing2
                {
                  OFFSET -2.60934 -0.819778 -0.0198488
                  CHANNELS 3 Zrotation Xrotation Yrotation
                  End Site
                  {
                    OFFSET -2.33842 -0.294052 0.168128
                  }
                }
              }
              JOINT rPinky1
              {
                OFFSET -8.27202 -0.0477905 -0.4584
                CHANNELS 3 Zrotation Xrotation Yrotation
                JOINT rPinky2
                {
                  OFFSET -1.82734 -0.647385 -0.700984
                  CHANNELS 3 Zrotation Xrotation Yrotation
                  End Site
                  {
                    OFFSET -1.69225 -0.51767 -0.607171
                  }
                }
              }
            }
          }
        }
      }
      JOINT lCollar
      {
        OFFSET 2.68224 19.2634 -4.8768
        CHANNELS 3 Zrotation Xrotation Yrotation
        JOINT lShldr
        {
          OFFSET 8.77824 -1.95073 1.46304
          CHANNELS 3 Zrotation Xrotation Yrotation
          JOINT lForeArm
          {
            OFFSET 28.1742 -1.7115 0.48768
            CHANNELS 3 Zrotation Xrotation Yrotation
            JOINT lHand
            {
              OFFSET 22.5879 0.773209 7.07136
              CHANNELS 3 Zrotation Xrotation Yrotation
              JOINT lThumb1
              {
                OFFSET 1.2192 -0.487915 3.41376
                CHANNELS 3 Zrotation Xrotation Yrotation
                JOINT lThumb2
                {
                  OFFSET 3.37035 -0.52449 3.41376
                  CHANNELS 3 Zrotation Xrotation Yrotation
                  End Site
                  {
                    OFFSET 1.78271 -1.18214 1.43049
                  }
                }
              }
              JOINT lIndex1
              {
                OFFSET 7.75947 0.938293 5.60832
                CHANNELS 3 Zrotation Xrotation Yrotation
                JOINT lIndex2
                {
                  OFFSET 2.54057 -0.884171 1.56538
                  CHANNELS 3 Zrotation Xrotation Yrotation
                  End Site
                  {
                    OFFSET 1.62519 -0.234802 1.16502
                  }
                }
              }
              JOINT lMid1
              {
                OFFSET 8.24714 1.18213 3.41376
                CHANNELS 3 Zrotation Xrotation Yrotation
                JOINT lMid2
                {
                  OFFSET 3.10165 -0.590103 1.0647
                  CHANNELS 3 Zrotation Xrotation Yrotation
                  End Site
                  {
                    OFFSET 2.48547 -0.328903 0.83742
                  }
                }
              }
              JOINT lRing1
              {
                OFFSET 8.82822 0.546677 1.51678
                CHANNELS 3 Zrotation Xrotation Yrotation
                JOINT lRing2
                {
                  OFFSET 2.60934 -0.819778 -0.0198488
                  CHANNELS 3 Zrotation Xrotation Yrotation
                  End Site
                  {
                    OFFSET 2.33842 -0.294052 0.168128
                  }
                }
              }
              JOINT lPinky1
              {
                OFFSET 8.27202 -0.0477905 -0.4584
                CHANNELS 3 Zrotation Xrotation Yrotation
                JOINT lPinky2
                {
                  OFFSET 1.82734 -0.647385 -0.700984
                  CHANNELS 3 Zrotation Xrotation Yrotation
                  End Site
                  {
                    OFFSET 1.69225 -0.51767 -0.607171
                  }
                }
              }
            }
          }
        }
      }
    }
  }
  JOINT rButtock
  {
    OFFSET -8.77824 4.35084 1.2192
    CHANNELS 3 Zrotation Xrotation Yrotation
    JOINT rThigh
    {
      OFFSET 0 -1.70687 -2.19456
      CHANNELS 3 Zrotation Xrotation Yrotation
      JOINT rShin
      {
        OFFSET 0 -36.8199 0.73152
        CHANNELS 3 Zrotation Xrotation Yrotation
        JOINT rFoot
        {
          OFFSET 0.73152 -45.1104 -5.12064
          CHANNELS 3 Zrotation Xrotation Yrotation
          End Site
          {
            OFFSET -1.1221 -3.69964 12.103
          }
        }
      }
    }
  }
  JOINT lButtock
  {
    OFFSET 8.77824 4.35084 1.2192
    CHANNELS 3 Zrotation Xrotation Yrotation
    JOINT lThigh
    {
      OFFSET 0 -1.70687 -2.19456
      CHANNELS 3 Zrotation Xrotation Yrotation
      JOINT lShin
      {
        OFFSET 0 -36.8199 0.73152
        CHANNELS 3 Zrotation Xrotation Yrotation
        JOINT lFoot
        {
          OFFSET -0.73152 -45.1104 -5.12064
          CHANNELS 3 Zrotation Xrotation Yrotation
          End Site
          {
            OFFSET 1.1221 -3.69964 12.103
          }
        }
      }
    }
  }
}
MOTION
Frames:	4
Frame Time:	0.00833333
-30.4269 86.2117 -190.407 -65.2902 -82.6014 72.212 8.23687 -2.98834 5.89504 -4.84934 -8.38159 1.25641 -26.5315 25.6443 -8.93261 62.7 -28.651 -9.29677 -0.0 0.0 0.0 -0.0 0.0 0.0 1.08367e-13 1.13562e-12 3.18956e-14 79.3111 -1.44143 -4.87814 -11.4195 -5.04958 20.4923 -1.43456 31.8973 5.01785 -2.34641e-09 -1.55367e-09 4.11288e-10 -4.0447e-09 -2.71118e-09 7.70422e-10 -2.34641e-09 -1.55368e-09 4.11284e-10 7.73091 5.47488 0.417314 -2.34641e-09 -1.55368e-09 4.11289e-10 2.90554 0.965183 0.102902 -2.3464e-09 -1.55368e-09 4.11291e-10 10.2786 0.731801 0.0259123 -2.34641e-09 -1.55367e-09 4.11302e-10 2.22167 -0.733487 -0.20892 1.08268e-13 1.13562e-12 3.15477e-14 -84.3122 19.3879 12.1333 14.4754 -7.34334 -26.5183 2.36941 -39.3466 6.61744 -2.15908e-09 -3.49077e-10 4.80231e-10 -3.74223e-09 -6.43769e-10 7.6449e-10 -2.15909e-09 -3.49077e-10 4.80243e-10 -7.73091 5.47488 -0.417314 -2.15909e-09 -3.49076e-10 4.80229e-10 -2.90554 0.965183 -0.102902 -2.15909e-09 -3.49071e-10 4.80234e-10 -10.2786 0.731801 -0.0259123 -2.15908e-09 -3.49072e-10 4.80225e-10 -2.22167 -0.733487 0.20892 -2.03217e-16 0.0 -3.88251e-19 4.88661 -27.4029 -8.35026 -0.290063 39.2926 0.656151 5.19546 -21.2302 12.7954 2.03217e-16 0.0 3.88251e-19 13.3625 -35.2368 10.1778 0.735804 53.8372 -1.23534 3.50002 -17.2678 7.40062
-30.44 86.2055 -190.232 -65.7502 -82.778 72.6009 8.06333 -2.94798 5.85917 -4.80309 -8.3938 1.25409 -26.607 25.501 -8.88499 62.6552 -28.42 -9.28163 -0.0 0.0 0.0 -0.0 0.0 0.0 2.12098e-13 1.88486e-12 -2.28474e-14 79.1192 -0.90528 -4.5204 -11.5934 -5.16712 20.8263 -1.36129 31.1726 4.8773 -3.66018e-09 -2.95669e-09 1.62848e-09 -6.28374e-09 -5.13464e-09 2.90418e-09 -3.66017e-09 -2.9567e-09 1.62847e-09 7.73091 5.47488 0.417314 -3.66018e-09 -2.9567e-09 1.62848e-09 2.90554 0.965183 0.102902 -3.66017e-09 -2.9567e-09 1.62848e-09 10.2786 0.731801 0.0259123 -3.66018e-09 -2.9567e-09 1.62849e-09 2.22167 -0.733487 -0.20892 2.12033e-13 1.88486e-12 -2.32015e-14 -84.1094 18.661 12.1814 14.31 -7.20726 -26.1803 2.35789 -39.27 6.59929 -4.02381e-09 -9.43137e-10 1.86179e-10 -6.95175e-09 -1.69818e-09 2.01288e-10 -4.02381e-09 -9.43136e-10 1.86196e-10 -7.73091 5.47488 -0.417314 -4.02381e-09 -9.43135e-10 1.86184e-10 -2.90554 0.965183 -0.102902 -4.02382e-09 -9.43131e-10 1.86187e-10 -10.2786 0.731801 -0.0259123 -4.02381e-09 -9.43133e-10 1.86177e-10 -2.22167 -0.733487 0.20892 -2.03217e-16 0.0 -3.88251e-19 4.96759 -27.3943 -7.60102 -0.291416 39.3799 0.659337 4.8579 -21.2464 12.0602 2.03217e-16 0.0 3.88251e-19 13.7324 -35.232 9.94299 0.745847 54.0387 -1.23835 3.6186 -16.8284 7.75126
-30.4573 86.2008 -190.056 -66.2829 -82.9562 73.0525 7.85953 -2.89128 5.84446 -4.7551 -8.41234 1.25837 -26.658 25.3811 -8.84181 62.6091 -28.2209 -9.26617 -0.0 0.0 0.0 -0.0 0.0 0.0 2.7793e-13 2.38661e-12 -5.22804e-14 78.9429 -0.376002 -4.19475 -11.781 -5.29625 21.1867 -1.28865 30.4307 4.7355 -4.43763e-09 -3.78941e-09 2.35211e-09 -7.60857e-09 -6.57274e-09 4.17221e-09 -4.43762e-09 -3.78941e-09 2.35211e-09 7.73091 5.47488 0.417314 -4.43763e-09 -3.78942e-09 2.35211e-09 2.90554 0.965183 0.102902 -4.43763e-09 -3.78942e-09 2.35212e-09 10.2786 0.731801 0.0259123 -4.43764e-09 -3.78941e-09 2.35213e-09 2.22167 -0.733487 -0.20892 2.77891e-13 2.3866e-12 -5.26282e-14 -83.8955 18.0708 12.2405 14.1581 -7.08275 -25.8727 2.31159 -38.968 6.52736 -5.15552e-09 -1.28135e-09 3.23144e-11 -8.90043e-09 -2.29949e-09 -9.72081e-11 -5.15553e-09 -1.28134e-09 3.23335e-11 -7.73091 5.47488 -0.417314 -5.15552e-09 -1.28134e-09 3.2324e-11 -2.90554 0.965183 -0.102902 -5.15553e-09 -1.28134e-09 3.23248e-11 -10.2786 0.731801 -0.0259123 -5.15552e-09 -1.28134e-09 3.23144e-11 -2.22167 -0.733487 0.20892 -2.03217e-16 0.0 -3.88251e-19 5.08552 -27.3732 -6.74694 -0.292918 39.4712 0.662722 4.46951 -21.2438 11.2166 2.03217e-16 0.0 3.88251e-19 14.1048 -35.1815 9.68123 0.753869 54.1882 -1.23829 3.71805 -16.3894 8.06594
-30.4799 86.1977 -189.877 -66.8901 -83.1459 73.564 7.6334 -2.81283 5.85809 -4.7097 -8.44145 1.27103 -26.676 25.2918 -8.80443 62.5568 -28.0619 -9.25158 -0.0 0.0 0.0 -0.0 0.0 0.0 2.9381e-13 2.59746e-12 -4.2159e-14 78.7877 0.142006 -3.90838 -11.9848 -5.43846 21.5796 -1.21598 29.6634 4.59093 -4.4557e-09 -3.75783e-09 2.27526e-09 -7.64082e-09 -6.51858e-09 4.03874e-09 -4.45569e-09 -3.75783e-09 2.27526e-09 7.73091 5.47488 0.417314 -4.4557e-09 -3.75783e-09 2.27527e-09 2.90554 0.965183 0.102902 -4.4557e-09 -3.75783e-09 2.27527e-09 10.2786 0.731801 0.0259123 -4.4557e-09 -3.75783e-09 2.27528e-09 2.22167 -0.733487 -0.20892 2.93787e-13 2.59745e-12 -4.24801e-14 -83.6646 17.6341 12.3133 14.0175 -6.96813 -25.5903 2.21494 -38.3171 6.37493 -5.21442e-09 -1.20433e-09 1.67044e-10 -9.00584e-09 -2.16757e-09 1.35943e-10 -5.21442e-09 -1.20432e-09 1.67062e-10 -7.73091 5.47488 -0.417314 -5.21442e-09 -1.20432e-09 1.67054e-10 -2.90554 0.965183 -0.102902 -5.21443e-09 -1.20432e-09 1.67054e-10 -10.2786 0.731801 -0.0259123 -5.21442e-09 -1.20432e-09 1.67044e-10 -2.22167 -0.733487 0.20892 -2.03217e-16 0.0 -3.88251e-19 5.2623 -27.331 -5.75001 -0.294369 39.5582 0.666203 4.01345 -21.2152 10.2264 2.03217e-16 0.0 3.88251e-19 14.4875 -35.0814 9.38199 0.759944 54.2866 -1.23524 3.79128 -15.9759 8.31648
